<svg width="188.999634" height="54.984131" viewBox="0 0 189 54.9841" fill="none" xmlns="http://www.w3.org/2000/svg" xmlns:xlink="http://www.w3.org/1999/xlink">
	<desc>
			Created with Pixso.
	</desc>
	<defs>
		<linearGradient id="paint_linear_12_104_0" x1="40.499832" y1="54.984524" x2="40.499832" y2="11.932796" gradientUnits="userSpaceOnUse">
			<stop stop-color="#4FBFA5"/>
			<stop offset="1.000000" stop-color="#006A65"/>
		</linearGradient>
		<radialGradient id="paint_radial_12_105_0" cx="0.000000" cy="0.000000" r="1.000000" gradientUnits="userSpaceOnUse" gradientTransform="translate(39.3104 4.17314) rotate(0) scale(4.80728 4.8382)">
			<stop stop-color="#4FBFA5"/>
			<stop offset="1.000000" stop-color="#00868A"/>
		</radialGradient>
		<linearGradient id="paint_linear_12_108_0" x1="40.499905" y1="22.753838" x2="81.000168" y2="22.753838" gradientUnits="userSpaceOnUse">
			<stop stop-color="#4FBFA5"/>
			<stop offset="1.000000" stop-color="#00868A"/>
		</linearGradient>
		<linearGradient id="paint_linear_12_109_0" x1="-0.000333" y1="22.754093" x2="40.499878" y2="22.754093" gradientUnits="userSpaceOnUse">
			<stop stop-color="#4FBFA5"/>
			<stop offset="1.000000" stop-color="#00868A"/>
		</linearGradient>
		<linearGradient id="paint_linear_12_111_0" x1="27.889391" y1="28.638218" x2="38.467102" y2="28.638218" gradientUnits="userSpaceOnUse">
			<stop stop-color="#4FBFA5"/>
			<stop offset="1.000000" stop-color="#00868A"/>
		</linearGradient>
		<linearGradient id="paint_linear_12_112_0" x1="41.820152" y1="45.192249" x2="45.907429" y2="45.192249" gradientUnits="userSpaceOnUse">
			<stop stop-color="#00868A"/>
			<stop offset="1.000000" stop-color="#4FBFA5"/>
		</linearGradient>
		<linearGradient id="paint_linear_12_113_0" x1="35.092285" y1="41.036453" x2="49.006119" y2="41.036453" gradientUnits="userSpaceOnUse">
			<stop stop-color="#00868A"/>
			<stop offset="1.000000" stop-color="#4FBFA5"/>
		</linearGradient>
		<linearGradient id="paint_linear_12_114_0" x1="31.993633" y1="32.794277" x2="53.110329" y2="32.794277" gradientUnits="userSpaceOnUse">
			<stop stop-color="#4FBFA5"/>
			<stop offset="1.000000" stop-color="#00868A"/>
		</linearGradient>
	</defs>
	<path id="XMLID 24" d="M39.4545 53.7664L37.5248 13.3022C37.4896 12.5591 37.9672 11.9321 38.5699 11.9321L42.4284 11.9321C43.0311 11.9321 43.5087 12.5591 43.4734 13.3022L41.5437 53.7664C41.468 55.3901 39.5321 55.3901 39.4545 53.7664Z" fill="url(#paint_linear_12_104_0)" fill-opacity="1.000000" fill-rule="nonzero"/>
	<path id="XMLID 23" d="M45.3071 4.83838C45.3071 7.5105 43.1547 9.67676 40.4996 9.67676C37.8445 9.67676 35.6921 7.5105 35.6921 4.83838C35.6921 2.16626 37.8445 0 40.4996 0C43.1547 0 45.3071 2.16626 45.3071 4.83838Z" fill="url(#paint_radial_12_105_0)" fill-opacity="1.000000" fill-rule="evenodd"/>
	<path id="XMLID 22" d="M43.5836 13.4819L37.4156 13.4819C36.7829 13.4819 36.2701 12.9658 36.2701 12.3291C36.2701 11.6924 36.7829 11.1763 37.4156 11.1763L43.5836 11.1763C44.2162 11.1763 44.7291 11.6924 44.7291 12.3291C44.7291 12.9658 44.2162 13.4819 43.5836 13.4819Z" fill="#00868A" fill-opacity="1.000000" fill-rule="nonzero"/>
	<path id="XMLID 20" d="M80.5308 24.2815L51.9792 13.0493C51.7122 12.9436 51.4073 13.0005 51.2003 13.2C48.4132 15.8853 44.2542 16.7046 41.1261 16.9043C40.9173 16.9175 40.7084 16.9246 40.4996 16.9246L40.4996 25.6917C42.5051 25.6917 44.5115 26.2991 46.2324 27.5129C47.5638 28.4521 48.8538 29.417 49.9896 30.2932C52.6515 32.3452 56.1161 33.021 59.3481 32.1235C59.9588 31.9541 60.0901 31.1418 59.5649 30.7864L51.0927 25.3066C50.3217 24.7844 51.0143 23.5986 51.8426 24.0234L62.8155 30.6533C62.9785 30.7366 63.1661 30.7571 63.3424 30.7092L69.1183 29.1589C69.7765 28.9824 69.869 28.0815 69.261 27.7729L54.9601 21.5254C54.1221 21.1006 54.6807 19.8271 55.5575 20.1631L73.4614 27.6577C73.6342 27.7241 73.8254 27.7224 73.9972 27.6541L80.5308 25.6702C81.1564 25.4202 81.1564 24.5298 80.5308 24.2815Z" fill="url(#paint_linear_12_108_0)" fill-opacity="1.000000" fill-rule="nonzero"/>
	<path id="XMLID 19" d="M39.8731 16.9045C36.7451 16.7041 32.5861 15.8855 29.799 13.2002C29.5919 13.0007 29.287 12.9438 29.0201 13.0496L0.469299 24.2817C-0.156311 24.5293 -0.156311 25.4204 0.468445 25.6687L7.00214 27.6526C7.17395 27.7209 7.36511 27.7227 7.53784 27.656L25.4418 20.1616C26.3185 19.8257 26.8763 21.0991 26.0392 21.5239L11.7382 27.7715C11.1302 28.0801 11.2228 28.981 11.881 29.1575L17.6569 30.7075C17.8331 30.7546 18.0217 30.7351 18.1838 30.6519L29.1567 24.022C29.9849 23.5972 30.6784 24.783 29.9065 25.3052L21.4343 30.7847C20.9092 31.1404 21.0405 31.9526 21.6511 32.1221C24.884 33.0195 28.3478 32.3438 31.0097 30.2917C32.1464 29.4155 33.4355 28.4507 34.7669 27.5115C36.4877 26.2976 38.4941 25.6899 40.4996 25.6899L40.4996 16.9231C40.2908 16.9238 40.082 16.9177 39.8731 16.9045Z" fill="url(#paint_linear_12_109_0)" fill-opacity="1.000000" fill-rule="nonzero"/>
	<path id="XMLID 17" d="M38.4421 32.5378C37.168 32.4041 35.959 32.271 34.7775 32.0183C32.6151 31.5554 30.9815 30.696 30.2942 29.6611C29.2906 28.1492 30.4185 26.2007 32.0504 25.0586C32.5094 24.7366 32.623 24.1018 32.3032 23.6387C31.9833 23.1768 31.3525 23.0623 30.8925 23.3843C28.0438 25.3787 27.0833 28.4949 28.6086 30.7944C29.8801 32.7109 32.4354 33.603 34.3554 34.0134C34.4576 34.0356 34.5607 34.0552 34.6629 34.0757C35.8013 33.502 37.1318 33.2537 38.4659 33.0566L38.4421 32.5378Z" fill="url(#paint_linear_12_111_0)" fill-opacity="1.000000" fill-rule="nonzero"/>
	<path id="XMLID 15" d="M42.0416 43.356C42.9976 43.6423 43.6294 44.0378 43.832 44.5034C43.9756 44.8333 43.803 45.2466 43.402 45.532C43.0258 45.7998 42.4698 45.949 41.9173 45.9551L41.8204 47.9966C41.845 47.9966 41.8697 47.9973 41.8944 47.9973C42.8698 47.9973 43.8408 47.718 44.5731 47.1975C45.7617 46.3516 46.2208 44.9077 45.6886 43.6858C45.4727 43.1899 45.1273 42.7563 44.6541 42.3875C43.8893 42.6003 43.0284 42.759 42.0653 42.8638L42.0416 43.356Z" fill="url(#paint_linear_12_112_0)" fill-opacity="1.000000" fill-rule="nonzero"/>
	<path id="XMLID 14" d="M47.4703 34.8232C47.1223 34.5244 46.7407 34.2795 46.3354 34.0757C45.0956 34.3213 43.8286 34.4553 42.6011 34.5847C42.5544 34.5901 42.506 34.5945 42.4593 34.5999L42.4355 35.1045C43.9255 35.3306 45.2798 35.623 46.1548 36.3752C46.6755 36.823 46.9769 37.4216 46.9795 38.0166C46.9822 38.5178 46.7725 38.9673 46.3733 39.3186C45.5327 40.0564 44.1193 40.5537 42.1641 40.7996C41.8848 40.835 41.5948 40.8643 41.2935 40.8889C41.0204 40.9111 40.756 40.9397 40.5005 40.9714C39.9057 41.0459 39.3585 41.1445 38.8589 41.2686C37.8051 41.531 36.9662 41.9045 36.3468 42.3877C35.8736 42.7566 35.5282 43.1895 35.3123 43.686C34.781 44.908 35.2401 46.3518 36.4279 47.1978C37.1592 47.7183 38.1311 47.9976 39.1065 47.9976C39.1312 47.9976 39.1559 47.9968 39.1805 47.9968L39.0836 45.9553C38.5311 45.95 37.9752 45.8 37.5989 45.5325C37.1979 45.2468 37.0261 44.8335 37.1698 44.5037C37.3724 44.0381 38.0042 43.6436 38.9603 43.3562C39.407 43.2222 39.9242 43.1123 40.5023 43.0288C40.8062 42.9854 41.1252 42.949 41.4609 42.9216C41.668 42.9048 41.8689 42.8843 42.0671 42.863C43.0303 42.7583 43.8911 42.5996 44.6559 42.387C45.9345 42.0312 46.946 41.5239 47.7083 40.8545C48.5524 40.113 49.015 39.1013 49.0088 38.0051C49 36.8159 48.4404 35.656 47.4703 34.8232Z" fill="url(#paint_linear_12_113_0)" fill-opacity="1.000000" fill-rule="nonzero"/>
	<path id="XMLID 13" d="M50.1067 23.3843C49.6476 23.0623 49.0158 23.1768 48.696 23.6387C48.3761 24.1008 48.4898 24.7366 48.9489 25.0586C50.5807 26.2017 51.7077 28.1492 50.705 29.6611C50.0186 30.696 48.384 31.5554 46.2217 32.0183C45.041 32.271 43.8321 32.4031 42.5571 32.5378C42.5015 32.5442 42.446 32.5493 42.3905 32.5557C41.7702 32.6204 41.134 32.6877 40.4996 32.7693C40.2819 32.7976 40.0652 32.8269 39.8484 32.8589C39.6211 32.8926 39.392 32.9246 39.1629 32.9565C38.9312 32.9893 38.6994 33.022 38.4668 33.0559C37.1328 33.2527 35.8013 33.502 34.6638 34.0747C34.2585 34.2788 33.8769 34.5234 33.5289 34.8223C32.5596 35.656 31.9992 36.8149 31.993 38.0042C31.9869 39.1003 32.4495 40.1121 33.2936 40.8535C34.0558 41.5229 35.0665 42.0303 36.3459 42.386C36.9653 41.9026 37.8042 41.5293 38.858 41.2668L38.836 40.7976C36.8807 40.552 35.4674 40.0544 34.6268 39.3167C34.2276 38.9656 34.0179 38.5159 34.0206 38.0149C34.024 37.4189 34.3245 36.8213 34.8453 36.3733C35.7211 35.6213 37.0746 35.3286 38.5646 35.1025C38.8536 35.0591 39.147 35.0173 39.4431 34.9758C39.6766 34.9429 39.9101 34.9102 40.1427 34.8755C40.2608 34.8577 40.3806 34.8428 40.4996 34.8267C41.1481 34.739 41.8098 34.6663 42.4584 34.5979C42.5059 34.5925 42.5535 34.5881 42.6002 34.5828C43.8286 34.4543 45.0947 34.3196 46.3345 34.0737C46.4367 34.0535 46.5398 34.0339 46.642 34.0117C48.562 33.6011 51.1174 32.7083 52.3889 30.7927C53.915 28.4949 52.9554 25.3787 50.1067 23.3843Z" fill="url(#paint_linear_12_114_0)" fill-opacity="1.000000" fill-rule="nonzero"/>
	<path id="XMLID 91" d="M123.289 13.8284L123.457 13.9812L123.457 14.9148L123.307 15.0483C121.943 15.0867 121.096 15.1572 120.768 15.2585C120.44 15.3596 120.207 15.5276 120.071 15.7625C119.935 15.9973 119.856 16.4575 119.838 17.1428C119.819 17.8284 119.785 19.7664 119.735 22.9529L119.735 31.7356C119.735 33.0054 119.754 34.4412 119.791 36.0413C119.828 37.6411 119.905 38.573 120.024 38.8325C120.142 39.0923 120.356 39.2832 120.665 39.4036C120.975 39.5237 121.857 39.604 123.307 39.6421L123.457 39.7759L123.457 40.7095L123.289 40.8621C121.268 40.7476 119.506 40.6904 118.005 40.6904C116.987 40.6904 115.257 40.7476 112.814 40.8621L112.646 40.7095L112.646 39.7949L112.796 39.6421C114.16 39.604 115.007 39.5352 115.335 39.4321C115.663 39.3308 115.896 39.1628 116.032 38.928C116.168 38.6931 116.249 38.2273 116.275 37.5286C116.299 36.8298 116.331 34.8994 116.368 31.7375L116.368 17.7539L109.949 31.5085C108.336 34.9509 106.928 38.1892 105.726 41.2249L105 41.2249C104.305 39.5867 103.734 38.2788 103.289 37.2993L94.3954 18.3821L94.3954 31.6995C94.3954 32.9443 94.4103 34.3762 94.442 35.9954C94.4737 37.6145 94.5501 38.552 94.675 38.8059C94.7981 39.0598 95.0162 39.2507 95.3257 39.3767C95.6352 39.5046 96.5171 39.5791 97.9677 39.606L98.1168 39.7585L98.1168 40.6731L97.949 40.845L96.7576 40.7876C95.5289 40.7246 94.4755 40.6921 93.5955 40.6921C93.1984 40.6921 91.7161 40.7419 89.1488 40.845L88.9996 40.6921L88.9996 39.7776L89.1488 39.606C90.5135 39.5811 91.3563 39.5181 91.6788 39.415C92.0014 39.3137 92.2344 39.1418 92.3762 38.9014C92.5179 38.6606 92.5999 38.2102 92.6185 37.5496C92.6372 36.8889 92.6652 34.9395 92.7025 31.7014L92.7025 22.9758C92.7025 21.8208 92.6875 20.4136 92.6558 18.7563C92.6241 17.0991 92.5496 16.1406 92.4321 15.8789C92.3146 15.6194 92.1002 15.4246 91.7907 15.2986C91.4812 15.1726 90.5993 15.0962 89.1488 15.0693L88.9996 14.9167L88.9996 14.0002L89.1674 13.8284C90.0232 13.8914 91.1773 13.9238 92.6279 13.9238C93.9926 13.9238 95.1821 13.8933 96.2001 13.8284C97.2424 16.2932 98.2399 18.5215 99.1963 20.5166L106.248 35.3386L112.611 21.7539C114.336 18.0842 115.495 15.4417 116.09 13.8284C117.281 13.8914 118.452 13.9238 119.606 13.9238C120.647 13.9238 121.874 13.8933 123.289 13.8284Z" fill="#333333" fill-opacity="1.000000" fill-rule="nonzero"/>
	<path id="XMLID 89" d="M125.688 13.9053L125.838 13.7717C130.092 13.8481 132.814 13.8862 134.006 13.8862C138.074 13.8862 141.695 13.8481 144.87 13.7717L144.963 13.9053C144.654 15.1255 144.424 17.0366 144.275 19.6409L144.163 19.7937L143.252 19.7937L143.084 19.6409C143.097 19.5264 143.102 19.4253 143.102 19.3354C143.102 18.2566 143.022 17.2275 142.86 16.248C142.079 15.8931 140.996 15.6599 139.614 15.5532C138.231 15.4463 137.192 15.3909 136.498 15.3909C135.518 15.3909 134.267 15.4614 132.74 15.6008L132.665 18.6482L132.609 22.1345L132.553 26.0027C133.892 26.0791 135.126 26.1172 136.256 26.1172C137.397 26.1172 138.352 26.0791 139.122 26.0027C139.89 25.9263 140.341 25.8481 140.47 25.7642C140.6 25.6819 140.699 25.5234 140.768 25.2886C140.835 25.0537 140.895 24.6375 140.945 24.04L141.02 22.8582L141.169 22.7053L142.025 22.7053L142.174 22.8582C142.15 24.2424 142.118 25.6343 142.081 27.03L142.174 31.3164L142.025 31.469L141.169 31.469L141.02 31.3164L140.889 30.1726C140.777 29.283 140.697 28.7539 140.647 28.5823C140.597 28.4104 140.483 28.2615 140.302 28.1355C140.121 28.0093 139.661 27.9062 138.917 27.8298C138.173 27.7537 137.149 27.7153 135.848 27.7153C135.128 27.7153 134.03 27.7478 132.555 27.8108C132.494 28.8782 132.462 30.6558 132.462 33.1455C132.462 35.8127 132.494 37.7754 132.555 39.0317L135.978 39.0317C138.993 39.0317 140.878 38.9937 141.633 38.9172C142.39 38.8408 143.11 38.6575 143.792 38.3655C143.904 38.0732 144.087 37.3975 144.34 36.3359C144.594 35.2761 144.741 34.6118 144.779 34.3445L144.965 34.2107L145.858 34.2107L146.007 34.3445C145.895 34.8906 145.787 35.8433 145.681 37.2026C145.575 38.562 145.522 39.7249 145.522 40.689L145.392 40.8418C143.022 40.7654 139.922 40.7273 136.09 40.7273L131.03 40.689C129.852 40.689 128.623 40.7388 127.346 40.8418L127.197 40.689L127.197 40.0608L127.346 39.8699C128.077 39.488 128.496 39.2515 128.603 39.156C128.707 39.0605 128.795 37.9492 128.864 35.8223C128.931 33.6953 128.966 32.0725 128.966 30.9556L128.966 23.9656L128.947 19.6409C128.947 18.7017 128.934 17.936 128.91 17.3459C128.886 16.7559 128.841 16.334 128.78 16.0781C128.718 15.8242 128.645 15.6467 128.565 15.5454C128.485 15.4443 128.355 15.3584 128.174 15.2876C127.993 15.217 127.687 15.158 127.253 15.1064L125.839 14.9917L125.69 14.8582L125.69 13.9053L125.688 13.9053Z" fill="#333333" fill-opacity="1.000000" fill-rule="nonzero"/>
	<path id="XMLID 86" d="M148.162 13.9045L148.312 13.7708C150.458 13.8721 151.921 13.9236 152.702 13.9236L161.409 13.7327C163.889 13.7327 165.923 13.9714 167.512 14.4468C169.1 14.9221 170.51 15.7488 171.744 16.9231C172.978 18.0974 173.914 19.4644 174.554 21.0186C175.191 22.5747 175.512 24.2358 175.512 26C175.512 27.7146 175.221 29.4099 174.638 31.0864C174.054 32.7627 173.226 34.2654 172.154 35.5923C171.082 36.9192 169.859 37.9902 168.489 38.8018C167.118 39.6152 165.744 40.1575 164.368 40.4304C162.992 40.7034 161.585 40.8391 160.145 40.8391C159.178 40.8391 157.354 40.8008 154.675 40.7244C153.795 40.6997 153.211 40.6863 152.926 40.6863C152.07 40.6863 151.034 40.7358 149.82 40.8391L149.671 40.6863L149.671 40.0581L149.82 39.8672C150.551 39.4854 150.97 39.2485 151.077 39.1531C151.181 39.0576 151.269 37.9465 151.338 35.8196C151.405 33.6926 151.44 32.0696 151.44 30.9526L151.44 23.9646L151.422 19.6401C151.422 18.7007 151.408 17.9351 151.384 17.345C151.36 16.7551 151.315 16.3333 151.254 16.0774C151.192 15.8232 151.119 15.6458 151.039 15.5447C150.959 15.4434 150.829 15.3574 150.648 15.2869C150.469 15.2163 150.161 15.157 149.727 15.1055L148.313 14.991L148.164 14.8572L148.164 13.9045L148.162 13.9045ZM155.046 38.7673C156.312 39.0215 157.768 39.1492 159.418 39.1492C162.308 39.1492 164.618 38.6548 166.348 37.6638C168.079 36.6729 169.371 35.2065 170.226 33.2629C171.082 31.3193 171.511 29.1294 171.511 26.6912C171.511 23.0959 170.575 20.3083 168.701 18.3264C166.829 16.3445 163.876 15.3538 159.845 15.3538C158.184 15.3538 156.582 15.4817 155.046 15.7356C154.947 17.8186 154.897 20.1689 154.897 22.7847L154.897 28.7666L154.934 34.3684C154.934 35.4585 154.971 36.9268 155.046 38.7673Z" fill="#333333" fill-opacity="1.000000" fill-rule="nonzero"/>
	<path id="XMLID 84" d="M178.189 13.7717L180.514 13.8481C182.04 13.8997 183.039 13.9246 183.511 13.9246C183.932 13.9246 185.713 13.8748 188.85 13.7717L189 13.9053L189 14.8582L188.85 14.9917C187.995 15.0166 187.335 15.0547 186.869 15.1064C186.402 15.158 186.065 15.2534 185.854 15.3928C185.644 15.532 185.504 15.8586 185.435 16.374C185.366 16.8877 185.332 17.6038 185.332 18.5183L185.295 22.9001L185.295 31.7209L185.314 35.4365C185.327 36.8723 185.362 37.7983 185.425 38.2185C185.487 38.6384 185.576 38.9172 185.696 39.0566C185.813 39.196 186.041 39.3145 186.374 39.4099C186.71 39.5054 187.534 39.5779 188.849 39.6294L188.998 39.7439L188.998 40.6968L188.849 40.8494C188.787 40.8494 187.695 40.8113 185.575 40.7349C184.695 40.71 184.005 40.6968 183.509 40.6968C183.125 40.6968 181.35 40.7463 178.188 40.8494L178.038 40.6968L178.038 39.7439L178.188 39.6294C179.342 39.5798 180.11 39.5149 180.494 39.4385C180.878 39.3621 181.135 39.2646 181.266 39.1426C181.396 39.0222 181.501 38.7644 181.583 38.3711C181.663 37.9778 181.71 37.1016 181.723 35.7419L181.741 31.7229L181.741 22.9021L181.704 19.1865C181.691 17.7393 181.657 16.8057 181.601 16.3855C181.546 15.9656 181.458 15.6868 181.34 15.5474C181.223 15.408 180.995 15.2935 180.662 15.2036C180.326 15.116 179.502 15.0452 178.188 14.9937L178.038 14.8601L178.038 13.9053L178.189 13.7717Z" fill="#333333" fill-opacity="1.000000" fill-rule="nonzero"/>
</svg>
