<svg width="26.000000" height="22.000000" viewBox="0 0 26 22" fill="none" xmlns="http://www.w3.org/2000/svg" xmlns:xlink="http://www.w3.org/1999/xlink">
	<desc>
			Created with Pixso.
	</desc>
	<defs>
		<clipPath id="clip3_15">
			<rect id="simple-line-icons:eye" width="26.000000" height="22.000000" fill="white" fill-opacity="0"/>
		</clipPath>
	</defs>
	<rect id="simple-line-icons:eye" width="26.000000" height="22.000000" fill="#FFFFFF" fill-opacity="0"/>
	<g clip-path="url(#clip3_15)">
		<path id="Vector" d="M13.0739 6.3103C12.4337 6.3103 11.8223 6.43701 11.2396 6.69067C10.6569 6.94458 10.1563 7.28003 9.73769 7.69751C9.31913 8.11499 8.98264 8.61426 8.72823 9.19531C8.4738 9.77637 8.3466 10.386 8.3466 11.0244C8.3466 11.6628 8.4738 12.2766 8.72823 12.866C8.98264 13.4553 9.31913 13.9587 9.73769 14.376C10.1563 14.7935 10.6569 15.125 11.2396 15.3704C11.8223 15.616 12.4337 15.7388 13.0739 15.7388C13.9438 15.7388 14.7399 15.53 15.4621 15.1125C16.1843 14.6953 16.7547 14.1265 17.1733 13.4062C17.5919 12.686 17.8011 11.8921 17.8011 11.0244C17.8011 9.73145 17.3415 8.62231 16.4224 7.69751C15.5032 6.77271 14.387 6.3103 13.0739 6.3103ZM13.0739 14.1672C12.5158 14.1672 11.9905 14.0242 11.4981 13.7375C11.0057 13.4512 10.6159 13.0664 10.3286 12.5837C10.0414 12.1008 9.89773 11.5728 9.89773 11C9.89773 10.5742 9.9798 10.1692 10.1439 9.78442C10.3081 9.3999 10.5338 9.06421 10.821 8.77783C11.1083 8.49146 11.4448 8.26636 11.8305 8.10254C12.2162 7.93896 12.6225 7.85718 13.0492 7.85718C13.9192 7.85718 14.6619 8.16406 15.2775 8.77783C15.893 9.3916 16.2008 10.1323 16.2008 11C16.2008 11.8674 15.8971 12.6123 15.2898 13.2344C14.6825 13.8564 13.9438 14.1672 13.0739 14.1672ZM25.6061 10.8281C25.6061 10.8118 25.602 10.7913 25.5938 10.7666C25.5855 10.7422 25.5814 10.7217 25.5814 10.7053C25.5814 10.689 25.5773 10.6768 25.5691 10.6685L25.5568 10.6562L25.5568 10.6316L25.5322 10.5825C24.416 8.0127 22.7254 5.99512 20.4602 4.53003C18.1951 3.06494 15.7248 2.33252 13.0492 2.33252C11.2929 2.33252 9.60228 2.65161 7.97728 3.29004C6.35228 3.92847 4.87911 4.87378 3.55777 6.12598C2.23643 7.37817 1.19824 8.86377 0.443188 10.5825L0.443188 10.6438L0.418568 10.6807L0.418568 10.7544L0.393944 10.8035C0.377529 10.9016 0.369324 10.9753 0.369324 11.0244C0.369324 11.0571 0.373428 11.0898 0.381634 11.1228C0.389843 11.1555 0.393944 11.1882 0.393944 11.2209C0.393944 11.2373 0.402153 11.2617 0.418568 11.2947L0.418568 11.3438L0.430878 11.3806L0.443188 11.3928L0.443188 11.4666C1.57576 14.0364 3.27873 16.0457 5.55209 17.4944C7.82545 18.9431 10.3081 19.6672 13 19.6672C14.7563 19.6672 16.4429 19.3523 18.0597 18.7219C19.6765 18.0918 21.1414 17.1548 22.4546 15.9106C23.7677 14.6665 24.7936 13.1853 25.5322 11.4666C25.5486 11.4666 25.5568 11.4583 25.5568 11.4419L25.5568 11.405L25.5691 11.3806L25.5814 11.3682L25.5814 11.2947L25.6061 11.2454C25.6225 11.1472 25.6307 11.0735 25.6307 11.0244C25.6307 10.9917 25.6266 10.959 25.6184 10.9263C25.6102 10.8936 25.6061 10.8608 25.6061 10.8281ZM13 18.0959C10.6692 18.0959 8.51074 17.4861 6.52463 16.2666C4.53852 15.0471 3.02842 13.2998 1.99432 11.0244C3.02842 8.74927 4.54672 6.99365 6.54925 5.75781C8.55177 4.52197 10.7184 3.90405 13.0492 3.90405C14.5593 3.90405 16.0079 4.16577 17.3949 4.6897C18.7819 5.21338 20.0581 6.01953 21.2235 7.10815C22.3889 8.19678 23.3163 9.5022 24.0057 11.0244C22.9716 13.2998 21.4615 15.0471 19.4754 16.2666C17.4893 17.4861 15.3308 18.0959 13 18.0959Z" fill="#FFFFFF" fill-opacity="1.000000" fill-rule="nonzero"/>
	</g>
</svg>
