<svg width="24.000000" height="24.000000" viewBox="0 0 24 24" fill="none" xmlns="http://www.w3.org/2000/svg" xmlns:xlink="http://www.w3.org/1999/xlink">
	<desc>
			Created with Pixso.
	</desc>
	<defs/>
	<rect id="Компоненты 2" width="24.000000" height="24.000000" fill="#FFFFFF" fill-opacity="0"/>
	<path id="Vector" d="M16.5 0L7.5 0C3.35852 0 0 3.3584 0 7.5L0 16.5C0 20.6416 3.35852 24 7.5 24L16.5 24C20.6415 24 24 20.6416 24 16.5L24 7.5C24 3.3584 20.6415 0 16.5 0ZM21.75 16.5C21.75 19.395 19.395 21.75 16.5 21.75L7.5 21.75C4.60498 21.75 2.25 19.395 2.25 16.5L2.25 7.5C2.25 4.60498 4.60498 2.25 7.5 2.25L16.5 2.25C19.395 2.25 21.75 4.60498 21.75 7.5L21.75 16.5Z" fill="#4FBFA5" fill-opacity="1.000000" fill-rule="nonzero"/>
	<path id="Vector" d="M12 6C8.68652 6 6 8.68652 6 12C6 15.3135 8.68652 18 12 18C15.3135 18 18 15.3135 18 12C18 8.68652 15.3135 6 12 6ZM12 15.75C9.93298 15.75 8.25 14.0669 8.25 12C8.25 9.9314 9.93298 8.25 12 8.25C14.067 8.25 15.75 9.9314 15.75 12C15.75 14.0669 14.067 15.75 12 15.75Z" fill="#4FBFA5" fill-opacity="1.000000" fill-rule="nonzero"/>
	<path id="Vector" d="M19.2474 5.55054C19.2474 5.99194 18.8895 6.34985 18.4479 6.34985C18.0064 6.34985 17.6484 5.99194 17.6484 5.55054C17.6484 5.10889 18.0064 4.75098 18.4479 4.75098C18.8895 4.75098 19.2474 5.10889 19.2474 5.55054Z" fill="#4FBFA5" fill-opacity="1.000000" fill-rule="evenodd"/>
</svg>
