<svg width="23.999969" height="13.720703" viewBox="0 0 24 13.7207" fill="none" xmlns="http://www.w3.org/2000/svg" xmlns:xlink="http://www.w3.org/1999/xlink">
	<desc>
			Created with Pixso.
	</desc>
	<defs/>
	<path id="Vector" d="M21.3625 9.61792C21.3625 9.61792 23.3029 11.5344 23.7829 12.4211C23.7922 12.4341 23.7995 12.4482 23.8045 12.4631C24.0001 12.7908 24.0481 13.0476 23.9521 13.2373C23.7901 13.5503 23.2417 13.7075 23.0557 13.7207L19.6261 13.7207C19.3873 13.7207 18.8905 13.6584 18.2857 13.2407C17.8237 12.918 17.3641 12.3865 16.9189 11.8667C16.2541 11.0952 15.6793 10.4255 15.0973 10.4255C15.0238 10.4255 14.9508 10.4375 14.8813 10.4617C14.4409 10.6008 13.8817 11.2285 13.8817 12.8999C13.8817 13.4231 13.4689 13.7207 13.1797 13.7207L11.6089 13.7207C11.0737 13.7207 8.28732 13.5337 5.8165 10.9285C2.78891 7.73877 0.0697021 1.34033 0.0433044 1.28394C-0.125885 0.870117 0.229309 0.644287 0.613312 0.644287L4.07651 0.644287C4.54089 0.644287 4.69211 0.925293 4.7977 1.17725C4.9201 1.46631 5.37372 2.62329 6.11771 3.92285C7.32251 6.03711 8.0629 6.89771 8.65451 6.89771C8.76566 6.89795 8.87494 6.8689 8.97131 6.81372C9.74411 6.38892 9.6001 3.62891 9.56412 3.06006C9.56412 2.94971 9.5629 1.82764 9.1669 1.28516C8.8837 0.896484 8.40131 0.745117 8.10971 0.689941C8.18771 0.577148 8.3533 0.404297 8.5657 0.30249C9.09491 0.0383301 10.0513 0 11.0005 0L11.5273 0C12.5569 0.0144043 12.8233 0.0803223 13.1977 0.175293C13.9513 0.355225 13.9657 0.843506 13.8997 2.50684C13.8805 2.98193 13.8601 3.51709 13.8601 4.14722C13.8601 4.28149 13.8541 4.43164 13.8541 4.58398C13.8313 5.43726 13.8013 6.39844 14.4037 6.79321C14.4818 6.8418 14.5721 6.86768 14.6641 6.86768C14.8729 6.86768 15.4981 6.86768 17.1937 3.95752C17.9377 2.67236 18.5137 1.15674 18.5533 1.04272C18.5869 0.979248 18.6877 0.800293 18.8101 0.728516C18.8972 0.682129 18.9947 0.658936 19.0933 0.661133L23.1673 0.661133C23.6113 0.661133 23.9125 0.728516 23.9713 0.896484C24.0697 1.1687 23.9521 2.00049 22.0921 4.51562C21.7789 4.93433 21.5041 5.29688 21.2629 5.61353C19.5769 7.82642 19.5769 7.93799 21.3625 9.61792Z" fill="#4FBFA5" fill-opacity="1.000000" fill-rule="evenodd"/>
</svg>
