<svg width="21.001129" height="14.699951" viewBox="0 0 21.0011 14.7" fill="none" xmlns="http://www.w3.org/2000/svg" xmlns:xlink="http://www.w3.org/1999/xlink">
	<desc>
			Created with Pixso.
	</desc>
	<defs/>
	<path id="Vector" d="M20.5581 2.29492C20.4386 1.85107 20.2046 1.44629 19.8794 1.12109C19.5543 0.795898 19.1495 0.562012 18.7056 0.442383C17.0706 0 10.5005 0 10.5005 0C10.5005 0 3.93057 0 2.29556 0.442383C1.85159 0.562012 1.44681 0.795898 1.1217 1.12109C0.79657 1.44629 0.562561 1.85107 0.443054 2.29492C0.137787 3.9624 -0.010376 5.65479 0.000549316 7.3501C-0.010376 9.04517 0.137787 10.7375 0.443054 12.405C0.562561 12.8489 0.79657 13.2537 1.1217 13.5789C1.44681 13.9041 1.85159 14.1379 2.29556 14.2576C3.93057 14.7 10.5005 14.7 10.5005 14.7C10.5005 14.7 17.0706 14.7 18.7056 14.2576C19.1495 14.1379 19.5543 13.9041 19.8794 13.5789C20.2046 13.2537 20.4386 12.8489 20.5581 12.405C20.8633 10.7375 21.0115 9.04517 21.0005 7.3501C21.0115 5.65479 20.8633 3.9624 20.5581 2.29492ZM8.40057 10.5L8.40057 4.19995L13.8531 7.3501L8.40057 10.5Z" fill="#4FBFA5" fill-opacity="1.000000" fill-rule="nonzero"/>
</svg>
